HIERARCHY
ROOT SpineBase
{
  OFFSET 0.000000 0.000000 0.000000
  CHANNELS 6 Xposition Yposition Zposition Zrotation Xrotation Yrotation
  JOINT SpineMid
  {
    OFFSET 0.000000 33.108402 0.000000
    CHANNELS 3 Zrotation Xrotation Yrotation
    JOINT SpineShoulder
    {
      OFFSET -0.087423 24.559011 -0.845358
      CHANNELS 3 Zrotation Xrotation Yrotation
      JOINT Neck
      {
        OFFSET -0.061385 8.104921 -0.646929
        CHANNELS 3 Zrotation Xrotation Yrotation
        JOINT Head
        {
          OFFSET 6.924838 12.958973 1.679425
          CHANNELS 3 Zrotation Xrotation Yrotation
          End Site
          {
            OFFSET 0 0 0
          }
        }
      }
      JOINT ShoulderLeft
      {
        OFFSET -11.446163 -4.351517 -12.854403
        CHANNELS 3 Zrotation Xrotation Yrotation
        JOINT ElbowLeft
        {
          OFFSET -6.509039 -24.067716 -5.756314
          CHANNELS 3 Zrotation Xrotation Yrotation
          JOINT WristLeft
          {
            OFFSET 3.133168 -27.798963 -5.356718
            CHANNELS 3 Zrotation Xrotation Yrotation
            JOINT HandLeft
            {
              OFFSET 0.296136 -5.007911 -0.145736
              CHANNELS 3 Zrotation Xrotation Yrotation
              JOINT HandTipLeft
              {
                OFFSET 0.753197 -6.358028 0.205292
                CHANNELS 3 Zrotation Xrotation Yrotation
                End Site
                {
                  OFFSET 0 0 0
                }
              }
              JOINT ThumbLeft
              {
                OFFSET 3.499105 1.482258 1.024368
                CHANNELS 3 Zrotation Xrotation Yrotation
                End Site
                {
                  OFFSET 0 0 0
                }
              }
            }
          }
        }
      }
      JOINT ShoulderRight
      {
        OFFSET 12.566862 -7.267056 9.564676
        CHANNELS 3 Zrotation Xrotation Yrotation
        JOINT ElbowRight
        {
          OFFSET -2.173991 -28.082163 17.077768
          CHANNELS 3 Zrotation Xrotation Yrotation
          JOINT WristRight
          {
            OFFSET 4.798216 -23.572636 -15.704649
            CHANNELS 3 Zrotation Xrotation Yrotation
            JOINT HandRight
            {
              OFFSET -0.856687 -5.034214 -2.537080
              CHANNELS 3 Zrotation Xrotation Yrotation
              JOINT HandTipRight
              {
                OFFSET 0.181570 -5.294317 -1.795501
                CHANNELS 3 Zrotation Xrotation Yrotation
                End Site
                {
                  OFFSET 0 0 0
                }
              }
              JOINT ThumbRight
              {
                OFFSET -2.182784 0.895797 -3.987853
                CHANNELS 3 Zrotation Xrotation Yrotation
                End Site
                {
                  OFFSET 0 0 0
                }
              }
            }
          }
        }
      }
    }
  }
  JOINT HipLeft
  {
    OFFSET -5.671541 1.744967 -8.601421
    CHANNELS 3 Zrotation Xrotation Yrotation
    JOINT KneeLeft
    {
      OFFSET -10.760047 -34.454819 -2.975552
      CHANNELS 3 Zrotation Xrotation Yrotation
      JOINT AnkleLeft
      {
        OFFSET -10.897512 -34.807204 4.375688
        CHANNELS 3 Zrotation Xrotation Yrotation
        JOINT FootLeft
        {
          OFFSET 2.058142 -8.385283 -4.630468
          CHANNELS 3 Zrotation Xrotation Yrotation
          End Site
          {
            OFFSET 0 0 0
          }
        }
      }
    }
  }
  JOINT HipRight
  {
    OFFSET 5.197847 0.049620 0.800652
    CHANNELS 3 Zrotation Xrotation Yrotation
    JOINT KneeRight
    {
      OFFSET -4.998208 -37.284803 3.231339
      CHANNELS 3 Zrotation Xrotation Yrotation
      JOINT AnkleRight
      {
        OFFSET -9.538574 -34.154305 7.067982
        CHANNELS 3 Zrotation Xrotation Yrotation
        JOINT FootRight
        {
          OFFSET 8.183659 -2.717629 -13.291704
          CHANNELS 3 Zrotation Xrotation Yrotation
          End Site
          {
            OFFSET 0 0 0
          }
        }
      }
    }
  }
}
MOTION
Frames: 10
Frame Time: 0.033333
19.208656 81.664709 336.531647 -0.000000 0.000000 -40.859962 0.000000 0.000000 40.859962 -0.000000 0.000000 0.000000 -0.000000 0.000000 0.000000 0.000000 0.000000 0.000000 -0.000000 0.000000 0.000000 -0.000000 0.000000 0.000000 -0.000000 0.000000 0.000000 -0.000000 0.000000 0.000000 0.000000 0.000000 0.000000 0.000000 0.000000 0.000000 -0.000000 0.000000 0.000000 -0.000000 0.000000 0.000000 -0.000000 0.000000 0.000000 -0.000000 0.000000 0.000000 0.000000 0.000000 0.000000 0.000000 0.000000 0.000000 0.000000 0.000000 40.859962 -0.000000 0.000000 0.000000 -0.000000 0.000000 0.000000 0.000000 0.000000 0.000000 0.000000 0.000000 40.859962 -0.000000 0.000000 0.000000 -0.000000 0.000000 0.000000 0.000000 0.000000 0.000000
19.204158 81.663182 336.520133 0.003933 0.005464 -40.896448 0.000604 -0.006705 40.896448 -0.000000 0.000000 0.000000 -0.000000 0.000000 0.000000 0.000000 0.000000 0.000000 -0.000000 0.000000 0.000000 -0.000000 0.000000 0.000000 -0.000000 0.000000 0.000000 -0.952412 -1.728174 -0.249984 0.000000 0.000000 0.000000 0.000000 0.000000 0.000000 -0.000000 0.000000 0.000000 -0.000000 0.000000 0.000000 -0.000000 0.000000 0.000000 0.358366 -1.256513 -0.161282 0.000000 0.000000 0.000000 0.000000 0.000000 0.000000 0.000604 -0.006705 40.896448 -0.000000 0.000000 0.000000 -0.000000 0.000000 0.000000 0.000000 0.000000 0.000000 0.000604 -0.006705 40.896448 -0.000000 0.000000 0.000000 -3.737257 -5.633131 1.700478 0.000000 0.000000 0.000000
19.200113 81.662844 336.511522 0.005925 0.010080 -40.930085 0.002127 -0.011498 40.930085 -0.000000 0.000000 0.000000 -0.000000 0.000000 0.000000 0.000000 0.000000 0.000000 -0.000000 0.000000 0.000000 -0.000000 0.000000 0.000000 0.151149 -0.826548 -0.052193 -1.776904 -2.314201 -0.391625 0.000000 0.000000 0.000000 0.000000 0.000000 0.000000 -0.000000 0.000000 0.000000 -0.000000 0.000000 0.000000 -0.000000 0.000000 0.000000 0.579827 -2.311514 -0.266003 0.000000 0.000000 0.000000 0.000000 0.000000 0.000000 0.002127 -0.011498 40.930085 -0.000000 0.000000 0.000000 -0.340127 -1.475335 -0.180104 0.000000 0.000000 0.000000 0.002127 -0.011498 40.930085 -0.000000 0.000000 0.000000 -7.786681 -12.049212 3.231023 0.000000 0.000000 0.000000
19.196522 81.663696 336.505814 0.005978 0.013849 -40.960887 0.004565 -0.014377 40.960887 -0.000000 0.000000 0.000000 -0.000000 0.000000 0.000000 0.000000 0.000000 0.000000 -0.000000 0.000000 0.000000 -0.000000 0.000000 0.000000 0.284776 -1.077932 -0.069361 -2.327144 -3.190753 -0.535171 0.000000 0.000000 0.000000 0.000000 0.000000 0.000000 -0.000000 0.000000 0.000000 -0.000000 0.000000 0.000000 -0.000000 0.000000 0.000000 0.677418 -3.191689 -0.323344 0.000000 0.000000 0.000000 0.000000 0.000000 0.000000 0.004565 -0.014377 40.960887 -0.000000 0.000000 0.000000 -0.453441 -2.095763 -0.275401 0.000000 0.000000 0.000000 0.004565 -0.014377 40.960887 -0.000000 0.000000 0.000000 -11.971444 -18.868346 4.427925 0.000000 0.000000 0.000000
19.193384 81.665738 336.503009 0.004090 0.016771 -40.988868 0.007913 -0.015342 40.988868 -0.000000 0.000000 0.000000 -0.000000 0.000000 0.000000 0.000000 0.000000 0.000000 -0.000000 0.000000 0.000000 -0.000000 0.000000 0.000000 0.455760 -1.227016 -0.080950 -2.671769 -3.911537 -0.642286 0.000000 0.000000 0.000000 0.000000 0.000000 0.000000 -0.000000 0.000000 0.000000 -0.000000 0.000000 0.000000 -0.000000 0.000000 0.000000 0.659157 -3.917520 -0.339276 0.000000 0.000000 0.000000 0.000000 0.000000 0.000000 0.007913 -0.015342 40.988868 -0.000000 0.000000 0.000000 -0.527604 -2.634855 -0.372766 0.000000 0.000000 0.000000 0.007913 -0.015342 40.988868 -0.000000 0.000000 0.000000 -16.044484 -25.503550 5.189523 0.000000 0.000000 0.000000
19.190700 81.668969 336.503108 0.000261 0.018845 -41.014041 0.012170 -0.014390 41.014043 -0.000000 0.000000 0.000000 -0.000000 0.000000 0.000000 0.000000 0.000000 0.000000 -0.000000 0.000000 0.000000 -0.000000 0.000000 0.000000 0.663281 -1.277310 -0.087442 -2.819509 -4.492600 -0.712250 0.000000 0.000000 0.000000 0.000000 0.000000 0.000000 -0.000000 0.000000 0.000000 -0.000000 0.000000 0.000000 -0.000000 0.000000 0.000000 0.528878 -4.504389 -0.317303 0.000000 0.000000 0.000000 0.000000 0.000000 0.000000 0.012170 -0.014390 41.014043 -0.000000 0.000000 0.000000 -0.561784 -3.090698 -0.471301 0.000000 0.000000 0.000000 0.012170 -0.014390 41.014043 -0.000000 0.000000 0.000000 -19.720092 -31.337356 5.542147 0.000000 0.000000 0.000000
19.182162 81.670497 336.502150 -0.011346 0.022033 -41.014877 0.023021 -0.009179 41.014881 -0.000000 0.000000 0.000000 -0.000000 0.000000 0.000000 0.000000 0.000000 0.000000 -0.000000 0.000000 0.000000 -0.000000 0.000000 0.000000 1.005687 -1.469198 -0.103241 -2.776566 -4.737054 -0.714352 0.000000 0.000000 0.000000 0.000000 0.000000 0.000000 -0.000000 0.000000 0.000000 -0.000000 0.000000 0.000000 -0.000000 0.000000 0.000000 0.451784 -5.431792 -0.323368 0.000000 0.000000 0.000000 0.000000 0.000000 0.000000 0.023021 -0.009179 41.014881 -0.000000 0.000000 0.000000 -0.546256 -3.472688 -0.577874 0.000000 0.000000 0.000000 0.023021 -0.009179 41.014881 -0.000000 0.000000 0.000000 -23.974692 -37.712338 5.462277 0.000000 0.000000 0.000000
19.176825 81.672823 336.504149 -0.010653 0.022243 -41.001361 0.022633 -0.009797 41.001365 -0.000000 0.000000 0.000000 -0.000000 0.000000 0.000000 0.000000 0.000000 0.000000 -0.000000 0.000000 0.000000 -0.000000 0.000000 0.000000 1.311592 -1.443617 -0.106983 -2.647574 -3.939361 -0.569892 0.000000 0.000000 0.000000 0.000000 0.000000 0.000000 -0.000000 0.000000 0.000000 -0.000000 0.000000 0.000000 -0.569070 -0.580787 0.383400 0.714424 -5.464396 -0.657175 0.000000 0.000000 0.000000 0.000000 0.000000 0.000000 0.022633 -0.009797 41.001365 -0.000000 0.000000 0.000000 -0.260962 -3.724502 -0.793546 0.000000 0.000000 0.000000 0.022633 -0.009797 41.001365 -0.000000 0.000000 0.000000 -26.761387 -41.781316 5.547784 0.000000 0.000000 0.000000
19.173853 81.681947 336.510953 -0.006500 0.020758 -41.051802 0.018534 -0.011385 41.051805 -0.000000 0.000000 0.000000 -0.000000 0.000000 0.000000 0.000000 0.000000 0.000000 -0.000000 0.000000 0.000000 -0.000000 0.000000 0.000000 1.476420 -0.752933 -0.077746 -2.864220 -4.865665 -0.663298 0.000000 0.000000 0.000000 0.000000 0.000000 0.000000 -0.000000 0.000000 0.000000 -0.000000 0.000000 0.000000 -0.643321 -1.282552 0.537796 0.367010 -3.389935 -0.636368 0.000000 0.000000 0.000000 0.000000 0.000000 0.000000 0.018534 -0.011385 41.051805 -0.000000 0.000000 0.000000 -0.230285 -3.984500 -0.876473 0.000000 0.000000 0.000000 0.018534 -0.011385 41.051805 -0.000000 0.000000 0.000000 -26.778552 -42.309039 6.625925 0.000000 0.000000 0.000000
19.175066 81.700772 336.513933 -0.017202 0.038667 -41.112907 0.038386 -0.017822 41.112919 -0.000000 0.000000 0.000000 -0.000000 0.000000 0.000000 0.000000 0.000000 0.000000 -0.000000 0.000000 0.000000 -0.000000 0.000000 0.000000 1.806572 -0.283801 -0.064829 -2.087620 -6.586511 -0.764242 0.000000 0.000000 0.000000 0.000000 0.000000 0.000000 -0.000000 0.000000 0.000000 -0.000000 0.000000 0.000000 -0.826639 -2.544706 0.839711 0.864000 -3.079269 -1.102421 0.000000 0.000000 0.000000 0.000000 0.000000 0.000000 0.038386 -0.017822 41.112919 -0.000000 0.000000 0.000000 -0.443449 -4.026390 -0.775151 0.000000 0.000000 0.000000 0.038386 -0.017822 41.112919 -0.000000 0.000000 0.000000 -23.939608 -38.481768 7.497240 0.000000 0.000000 0.000000
